<?xml version="1.0" encoding="utf-8"?>
<!-- Generator: Adobe Illustrator 27.5.0, SVG Export Plug-In . SVG Version: 6.00 Build 0)  -->
<svg version="1.1" id="Layer_1" xmlns="http://www.w3.org/2000/svg" xmlns:xlink="http://www.w3.org/1999/xlink" x="0px"
	y="0px" viewBox="0 0 2600.917 2000" style="enable-background:new 0 0 2600.917 2000;" xml:space="preserve">
	<g>
		<g>
			<rect y="0" style="fill:#FFFFFF;" width="2600.917" height="2000" />
		</g>
		<g>
			<path style="fill:#FF8D6B;" d="M625.574,1807.319c0,0-206.214-108.977-378.416-477.686
			C45.406,897.649,205.771,421.121,547.253,317.388c368.695-112,592.828,90.102,592.828,90.102s347.471-222.102,772.332-118.326
			c423.316,103.399,578.535,510.04,491.325,999.006c-58.313,326.95-297.641,518.016-297.641,518.016L625.574,1807.319z" />
		</g>
		<g>
			<path style="fill:#00B3BF;" d="M2359.411,1832.378H354.023c-10.371,0-18.779-8.407-18.779-18.779v-0.001
			c0-10.371,8.408-18.779,18.779-18.779h2005.389c10.371,0,18.779,8.408,18.779,18.779l0,0
			C2378.191,1823.97,2369.783,1832.378,2359.411,1832.378z" />
		</g>
		<g>
			<g>
				<g>
					<path style="fill:#8293E0;" d="M2084.317,1557.847H805.709c-22.151,0-40.108-16.752-40.108-37.417l-24.323-875.351
					c0-20.666,17.957-37.418,40.108-37.418h1339.416c22.151,0,40.108,16.753,40.108,37.418l-36.485,875.351
					C2124.425,1541.095,2106.468,1557.847,2084.317,1557.847z" />
				</g>
				<g>
					<path style="fill:#676E9C;"
						d="M2145.333,615.473c4.258,5.942,6.74,13.084,6.74,20.768l-36.485,875.351
					c0,20.664-17.958,37.418-40.109,37.418H796.872c-9.24,0-17.749-2.915-24.53-7.813c7.193,10.039,19.453,16.65,33.367,16.65
					h1278.608c22.151,0,40.108-16.752,40.108-37.419l36.485-875.35C2160.91,633.034,2154.809,622.317,2145.333,615.473z" />
				</g>
				<g>
					<path style="fill:#82C7E6;" d="M821.206,1455.375l-24.323-784.641c0-20.666,17.957-37.418,40.108-37.418h1242.184
					c22.151,0,40.108,16.753,40.108,37.418l-36.485,784.641c0,20.664-17.958,37.417-40.108,37.417H861.314
					C839.163,1492.792,821.206,1476.039,821.206,1455.375z" />
				</g>
				<g>
					<path style="fill:#B32323;" d="M1226.468,837.052h-65.177l-157.316,225.111v43.659h158.832v93.089h63.661v-93.089h47.859
					v-56.295h-47.859V837.052z M1079.554,1049.527l72.977-101.435l0.461-0.696c3.525-5.881,6.791-11.429,9.933-16.888
					c-0.078,4.974-0.117,9.941-0.117,14.895v104.123H1079.554z" />
					<path style="fill:#B32323;" d="M1449.931,831.269c-79.486,0-128.862,71.945-128.862,187.857
					c1.063,114.462,48.219,185.571,123.079,185.571c81.894,0,128.862-69.397,128.862-190.397
					C1573.009,899.693,1527.002,831.269,1449.931,831.269z M1446.773,1148.926c-36.652,0-59.417-49.571-59.417-129.366
					c0-80.506,23.531-132.523,59.941-132.523c51.696,0,59.417,81.053,59.417,129.366
					C1506.714,1065.895,1498.931,1148.926,1446.773,1148.926z" />
					<path style="fill:#B32323;" d="M1838.555,1049.527V837.052h-65.177l-157.316,225.111v43.659h158.832v93.089h63.661v-93.089
					h47.859v-56.295H1838.555z M1691.641,1049.527l72.977-101.435l0.461-0.696c3.525-5.881,6.791-11.429,9.933-16.888
					c-0.078,4.974-0.117,9.941-0.117,14.895v104.123H1691.641z" />
					<path style="fill:#151515;" d="M1213.459,837.052h-65.177l-157.316,225.111v43.659h158.832v93.089h63.661v-93.089h47.859
					v-56.295h-47.859V837.052z M1066.545,1049.527l72.977-101.435l0.461-0.696c3.525-5.881,6.791-11.429,9.933-16.888
					c-0.078,4.974-0.117,9.941-0.117,14.895v104.123H1066.545z" />
					<path style="fill:#151515;" d="M1436.921,831.269c-79.486,0-128.862,71.945-128.862,187.857
					c1.063,114.462,48.219,185.571,123.079,185.571c81.894,0,128.862-69.397,128.862-190.397
					C1560,899.693,1513.993,831.269,1436.921,831.269z M1433.764,1148.926c-36.652,0-59.417-49.571-59.417-129.366
					c0-80.506,23.531-132.523,59.941-132.523c51.696,0,59.418,81.053,59.418,129.366
					C1493.705,1065.895,1485.921,1148.926,1433.764,1148.926z" />
					<path style="fill:#151515;" d="M1825.546,1049.527V837.052h-65.177l-157.316,225.111v43.659h158.832v93.089h63.661v-93.089
					h47.859v-56.295H1825.546z M1678.632,1049.527l72.976-101.435l0.461-0.696c3.525-5.881,6.791-11.429,9.933-16.888
					c-0.078,4.974-0.117,9.941-0.117,14.895v104.123H1678.632z" />
				</g>
				<path style="fill:#F7CC7F;" d="M1395.617,607.661c211.033,200.601,757.752,218.346,757.752,218.346
				c11.419,6.435-4.347,104.288-4.347,104.288c-492.032-86.95-749.009-211.083-856.723-322.634
				C1294.498,595.031,1386.235,598.951,1395.617,607.661z" />
				<g>
					<path style="fill:#686476;" d="M1867.825,870.672c43.665,11.06,89.962,21.797,139.002,32.144
					c29.568-14.004,66.924-38.211,100.43-79.367c-28.508-1.963-68.65-5.32-115.911-10.918
					C1969.869,830.35,1926.002,860.838,1867.825,870.672z" />
					<path style="fill:#686476;" d="M1543.445,764.483c33.918,14.529,70.978,28.886,111.36,42.966
					c26.034-3.878,54.557-15.105,79.6-40.955c-27.794-6.99-55.59-14.788-82.906-23.484
					C1626.948,753.224,1591.957,762.356,1543.445,764.483z" />
					<path style="fill:#686476;" d="M1345.505,654.319c21.904,16.609,47.222,33.339,76.221,50.038
					c23.044-4.439,49.313-12.034,75.879-24.874c-17.86-9.632-34.872-19.892-50.827-30.819
					C1423.583,654.233,1387.212,659.728,1345.505,654.319z" />
				</g>
				<g style="opacity:0.32;">
					<g>
						<defs>
							<path id="SVGID_1_" d="M1866.759,1120.416c-150.71,265.074-413.238,148.164-770.352,93.526
							c-119.966-18.355-212.548,20.673-282.606,80.602l5.582,180.075c0,20.666,17.957,37.417,40.108,37.417h1181.375
							c22.151,0,40.108-16.752,40.108-37.417l25.005-537.742C1995.76,989.401,1906.386,1050.718,1866.759,1120.416z" />
						</defs>
						<clipPath id="SVGID_00000157278644588937154570000002816558255968273571_">
							<use xlink:href="#SVGID_1_" style="overflow:visible;" />
						</clipPath>
						<polygon
							style="clip-path:url(#SVGID_00000157278644588937154570000002816558255968273571_);fill:#118DC9;"
							points="
						2060.425,1512.036 2105.979,1509.075 2105.979,1512.036 					" />
						<polygon
							style="clip-path:url(#SVGID_00000157278644588937154570000002816558255968273571_);fill:#128EC9;"
							points="
						1993.041,1512.036 2105.979,1504.697 2105.979,1509.075 2060.425,1512.036 					" />
						<polygon
							style="clip-path:url(#SVGID_00000157278644588937154570000002816558255968273571_);fill:#138EC9;"
							points="
						1925.657,1512.036 2105.979,1500.318 2105.979,1504.697 1993.041,1512.036 					" />
						<polygon
							style="clip-path:url(#SVGID_00000157278644588937154570000002816558255968273571_);fill:#148FCA;"
							points="
						1858.273,1512.036 2105.979,1495.939 2105.979,1500.318 1925.657,1512.036 					" />
						<polygon
							style="clip-path:url(#SVGID_00000157278644588937154570000002816558255968273571_);fill:#1590CA;"
							points="
						1790.889,1512.036 2105.979,1491.56 2105.979,1495.939 1858.273,1512.036 					" />
						<polygon
							style="clip-path:url(#SVGID_00000157278644588937154570000002816558255968273571_);fill:#1690CB;"
							points="
						1723.505,1512.036 2105.979,1487.182 2105.979,1491.56 1790.889,1512.036 					" />
						<polygon
							style="clip-path:url(#SVGID_00000157278644588937154570000002816558255968273571_);fill:#1791CB;"
							points="
						1656.12,1512.036 2105.979,1482.803 2105.979,1487.182 1723.505,1512.036 					" />
						<polygon
							style="clip-path:url(#SVGID_00000157278644588937154570000002816558255968273571_);fill:#1891CC;"
							points="
						1588.736,1512.036 2105.979,1478.424 2105.979,1482.803 1656.12,1512.036 					" />
						<polygon
							style="clip-path:url(#SVGID_00000157278644588937154570000002816558255968273571_);fill:#1992CC;"
							points="
						1521.352,1512.036 2105.979,1474.045 2105.979,1478.424 1588.736,1512.036 					" />
						<polygon
							style="clip-path:url(#SVGID_00000157278644588937154570000002816558255968273571_);fill:#1A93CD;"
							points="
						1453.968,1512.036 2105.979,1469.666 2105.979,1474.045 1521.352,1512.036 					" />
						<polygon
							style="clip-path:url(#SVGID_00000157278644588937154570000002816558255968273571_);fill:#1B93CD;"
							points="
						1386.584,1512.036 2105.979,1465.288 2105.979,1469.666 1453.968,1512.036 					" />
						<polygon
							style="clip-path:url(#SVGID_00000157278644588937154570000002816558255968273571_);fill:#1C94CD;"
							points="
						1319.2,1512.036 2105.979,1460.909 2105.979,1465.288 1386.584,1512.036 					" />
						<polygon
							style="clip-path:url(#SVGID_00000157278644588937154570000002816558255968273571_);fill:#1D95CE;"
							points="
						1251.816,1512.036 2105.979,1456.53 2105.979,1460.909 1319.2,1512.036 					" />
						<polygon
							style="clip-path:url(#SVGID_00000157278644588937154570000002816558255968273571_);fill:#1E95CE;"
							points="
						1184.432,1512.036 2105.979,1452.151 2105.979,1456.53 1251.816,1512.036 					" />
						<polygon
							style="clip-path:url(#SVGID_00000157278644588937154570000002816558255968273571_);fill:#1F96CF;"
							points="
						1117.047,1512.036 2105.979,1447.772 2105.979,1452.151 1184.432,1512.036 					" />
						<polygon
							style="clip-path:url(#SVGID_00000157278644588937154570000002816558255968273571_);fill:#2097CF;"
							points="
						1049.663,1512.036 2105.979,1443.394 2105.979,1447.772 1117.047,1512.036 					" />
						<polygon
							style="clip-path:url(#SVGID_00000157278644588937154570000002816558255968273571_);fill:#2197D0;"
							points="
						982.279,1512.036 2105.979,1439.015 2105.979,1443.394 1049.663,1512.036 					" />
						<polygon
							style="clip-path:url(#SVGID_00000157278644588937154570000002816558255968273571_);fill:#2298D0;"
							points="
						914.895,1512.036 2105.979,1434.636 2105.979,1439.015 982.279,1512.036 					" />
						<polygon
							style="clip-path:url(#SVGID_00000157278644588937154570000002816558255968273571_);fill:#2399D1;"
							points="
						847.511,1512.036 2105.979,1430.257 2105.979,1434.636 914.895,1512.036 					" />
						<polygon
							style="clip-path:url(#SVGID_00000157278644588937154570000002816558255968273571_);fill:#2499D1;"
							points="
						817.977,1512.036 817.818,1509.587 2105.979,1425.878 2105.979,1430.257 847.511,1512.036 					" />
						<polygon
							style="clip-path:url(#SVGID_00000157278644588937154570000002816558255968273571_);fill:#259AD1;"
							points="
						817.818,1509.587 817.534,1505.226 2105.979,1421.5 2105.979,1425.878 					" />
						<polygon
							style="clip-path:url(#SVGID_00000157278644588937154570000002816558255968273571_);fill:#269AD2;"
							points="
						817.534,1505.226 817.251,1500.866 2105.979,1417.121 2105.979,1421.5 					" />
						<polygon
							style="clip-path:url(#SVGID_00000157278644588937154570000002816558255968273571_);fill:#279BD2;"
							points="
						817.251,1500.866 816.968,1496.505 2105.979,1412.742 2105.979,1417.121 					" />
						<polygon
							style="clip-path:url(#SVGID_00000157278644588937154570000002816558255968273571_);fill:#289CD3;"
							points="
						816.968,1496.505 816.684,1492.145 2105.979,1408.363 2105.979,1412.742 					" />
						<polygon
							style="clip-path:url(#SVGID_00000157278644588937154570000002816558255968273571_);fill:#299CD3;"
							points="
						816.684,1492.145 816.401,1487.785 2105.979,1403.984 2105.979,1408.363 					" />
						<polygon
							style="clip-path:url(#SVGID_00000157278644588937154570000002816558255968273571_);fill:#2A9DD4;"
							points="
						816.401,1487.785 816.117,1483.424 2105.979,1399.606 2105.979,1403.984 					" />
						<polygon
							style="clip-path:url(#SVGID_00000157278644588937154570000002816558255968273571_);fill:#2B9ED4;"
							points="
						816.117,1483.424 815.834,1479.064 2105.979,1395.227 2105.979,1399.606 					" />
						<polygon
							style="clip-path:url(#SVGID_00000157278644588937154570000002816558255968273571_);fill:#2C9ED4;"
							points="
						815.834,1479.064 815.551,1474.703 2105.979,1390.848 2105.979,1395.227 					" />
						<polygon
							style="clip-path:url(#SVGID_00000157278644588937154570000002816558255968273571_);fill:#2D9FD5;"
							points="
						815.551,1474.703 815.267,1470.343 2105.979,1386.469 2105.979,1390.848 					" />
						<polygon
							style="clip-path:url(#SVGID_00000157278644588937154570000002816558255968273571_);fill:#2EA0D5;"
							points="
						815.267,1470.343 814.984,1465.983 2105.979,1382.09 2105.979,1386.469 					" />
						<polygon
							style="clip-path:url(#SVGID_00000157278644588937154570000002816558255968273571_);fill:#2FA0D6;"
							points="
						814.984,1465.983 814.701,1461.622 2105.979,1377.712 2105.979,1382.09 					" />
						<polygon
							style="clip-path:url(#SVGID_00000157278644588937154570000002816558255968273571_);fill:#30A1D6;"
							points="
						814.701,1461.622 814.417,1457.262 2105.979,1373.333 2105.979,1377.712 					" />
						<polygon
							style="clip-path:url(#SVGID_00000157278644588937154570000002816558255968273571_);fill:#31A2D7;"
							points="
						814.417,1457.262 814.134,1452.901 2105.979,1368.954 2105.979,1373.333 					" />
						<polygon
							style="clip-path:url(#SVGID_00000157278644588937154570000002816558255968273571_);fill:#32A2D7;"
							points="
						814.134,1452.901 813.851,1448.541 2105.979,1364.575 2105.979,1368.954 					" />
						<polygon
							style="clip-path:url(#SVGID_00000157278644588937154570000002816558255968273571_);fill:#33A3D8;"
							points="
						813.851,1448.541 813.801,1447.773 813.801,1444.166 2105.979,1360.197 2105.979,1364.575 					" />
						<polygon
							style="clip-path:url(#SVGID_00000157278644588937154570000002816558255968273571_);fill:#34A3D8;"
							points="
						813.801,1439.787 2105.979,1355.818 2105.979,1360.197 813.801,1444.166 					" />
						<polygon
							style="clip-path:url(#SVGID_00000157278644588937154570000002816558255968273571_);fill:#35A4D8;"
							points="
						813.801,1435.408 2105.979,1351.439 2105.979,1355.818 813.801,1439.787 					" />
						<polygon
							style="clip-path:url(#SVGID_00000157278644588937154570000002816558255968273571_);fill:#36A5D9;"
							points="
						813.801,1431.029 2105.979,1347.06 2105.979,1351.439 813.801,1435.408 					" />
						<polygon
							style="clip-path:url(#SVGID_00000157278644588937154570000002816558255968273571_);fill:#37A5D9;"
							points="
						813.801,1426.65 2105.979,1342.681 2105.979,1347.06 813.801,1431.029 					" />
						<polygon
							style="clip-path:url(#SVGID_00000157278644588937154570000002816558255968273571_);fill:#38A6DA;"
							points="
						813.801,1422.272 2105.979,1338.303 2105.979,1342.681 813.801,1426.65 					" />
						<polygon
							style="clip-path:url(#SVGID_00000157278644588937154570000002816558255968273571_);fill:#39A7DA;"
							points="
						813.801,1417.893 2105.979,1333.924 2105.979,1338.303 813.801,1422.272 					" />
						<polygon
							style="clip-path:url(#SVGID_00000157278644588937154570000002816558255968273571_);fill:#3AA7DB;"
							points="
						813.801,1413.514 2105.979,1329.545 2105.979,1333.924 813.801,1417.893 					" />
						<polygon
							style="clip-path:url(#SVGID_00000157278644588937154570000002816558255968273571_);fill:#3BA8DB;"
							points="
						813.801,1409.135 2105.979,1325.166 2105.979,1329.545 813.801,1413.514 					" />
						<polygon
							style="clip-path:url(#SVGID_00000157278644588937154570000002816558255968273571_);fill:#3CA9DC;"
							points="
						813.801,1404.756 2105.979,1320.787 2105.979,1325.166 813.801,1409.135 					" />
						<polygon
							style="clip-path:url(#SVGID_00000157278644588937154570000002816558255968273571_);fill:#3DA9DC;"
							points="
						813.801,1400.378 2105.979,1316.409 2105.979,1320.787 813.801,1404.756 					" />
						<polygon
							style="clip-path:url(#SVGID_00000157278644588937154570000002816558255968273571_);fill:#3EAADC;"
							points="
						813.801,1395.999 2105.979,1312.03 2105.979,1316.409 813.801,1400.378 					" />
						<polygon
							style="clip-path:url(#SVGID_00000157278644588937154570000002816558255968273571_);fill:#3FABDD;"
							points="
						813.801,1391.62 2105.979,1307.651 2105.979,1312.03 813.801,1395.999 					" />
						<polygon
							style="clip-path:url(#SVGID_00000157278644588937154570000002816558255968273571_);fill:#40ABDD;"
							points="
						813.801,1387.241 2105.979,1303.272 2105.979,1307.651 813.801,1391.62 					" />
						<polygon
							style="clip-path:url(#SVGID_00000157278644588937154570000002816558255968273571_);fill:#41ACDE;"
							points="
						813.801,1382.863 2105.979,1298.893 2105.979,1303.272 813.801,1387.241 					" />
						<polygon
							style="clip-path:url(#SVGID_00000157278644588937154570000002816558255968273571_);fill:#42ACDE;"
							points="
						813.801,1378.484 2105.979,1294.515 2105.979,1298.893 813.801,1382.863 					" />
						<polygon
							style="clip-path:url(#SVGID_00000157278644588937154570000002816558255968273571_);fill:#43ADDF;"
							points="
						813.801,1374.105 2105.979,1290.136 2105.979,1294.515 813.801,1378.484 					" />
						<polygon
							style="clip-path:url(#SVGID_00000157278644588937154570000002816558255968273571_);fill:#44AEDF;"
							points="
						813.801,1369.726 2105.979,1285.757 2105.979,1290.136 813.801,1374.105 					" />
						<polygon
							style="clip-path:url(#SVGID_00000157278644588937154570000002816558255968273571_);fill:#45AEE0;"
							points="
						813.801,1365.347 2105.979,1281.378 2105.979,1285.757 813.801,1369.726 					" />
						<polygon
							style="clip-path:url(#SVGID_00000157278644588937154570000002816558255968273571_);fill:#47AFE0;"
							points="
						813.801,1360.969 2105.979,1276.999 2105.979,1281.378 813.801,1365.347 					" />
						<polygon
							style="clip-path:url(#SVGID_00000157278644588937154570000002816558255968273571_);fill:#48B0E0;"
							points="
						813.801,1356.59 2105.979,1272.621 2105.979,1276.999 813.801,1360.969 					" />
						<polygon
							style="clip-path:url(#SVGID_00000157278644588937154570000002816558255968273571_);fill:#49B0E1;"
							points="
						813.801,1352.211 2105.979,1268.242 2105.979,1272.621 813.801,1356.59 					" />
						<polygon
							style="clip-path:url(#SVGID_00000157278644588937154570000002816558255968273571_);fill:#4AB1E1;"
							points="
						813.801,1347.832 2105.979,1263.863 2105.979,1268.242 813.801,1352.211 					" />
						<polygon
							style="clip-path:url(#SVGID_00000157278644588937154570000002816558255968273571_);fill:#4BB2E2;"
							points="
						813.801,1343.453 2105.979,1259.484 2105.979,1263.863 813.801,1347.832 					" />
						<polygon
							style="clip-path:url(#SVGID_00000157278644588937154570000002816558255968273571_);fill:#4CB2E2;"
							points="
						813.801,1339.075 2105.979,1255.105 2105.979,1259.484 813.801,1343.453 					" />
						<polygon
							style="clip-path:url(#SVGID_00000157278644588937154570000002816558255968273571_);fill:#4DB3E3;"
							points="
						813.801,1334.696 2105.979,1250.727 2105.979,1255.105 813.801,1339.075 					" />
						<polygon
							style="clip-path:url(#SVGID_00000157278644588937154570000002816558255968273571_);fill:#4EB4E3;"
							points="
						813.801,1330.317 2105.979,1246.348 2105.979,1250.727 813.801,1334.696 					" />
						<polygon
							style="clip-path:url(#SVGID_00000157278644588937154570000002816558255968273571_);fill:#4FB4E4;"
							points="
						813.801,1325.938 2105.979,1241.969 2105.979,1246.348 813.801,1330.317 					" />
						<polygon
							style="clip-path:url(#SVGID_00000157278644588937154570000002816558255968273571_);fill:#50B5E4;"
							points="
						813.801,1321.559 2105.979,1237.59 2105.979,1241.969 813.801,1325.938 					" />
						<polygon
							style="clip-path:url(#SVGID_00000157278644588937154570000002816558255968273571_);fill:#51B5E4;"
							points="
						813.801,1317.181 2105.979,1233.212 2105.979,1237.59 813.801,1321.559 					" />
						<polygon
							style="clip-path:url(#SVGID_00000157278644588937154570000002816558255968273571_);fill:#52B6E5;"
							points="
						813.801,1312.802 2105.979,1228.833 2105.979,1233.212 813.801,1317.181 					" />
						<polygon
							style="clip-path:url(#SVGID_00000157278644588937154570000002816558255968273571_);fill:#53B7E5;"
							points="
						813.801,1308.423 2105.979,1224.454 2105.979,1228.833 813.801,1312.802 					" />
						<polygon
							style="clip-path:url(#SVGID_00000157278644588937154570000002816558255968273571_);fill:#54B7E6;"
							points="
						813.801,1304.044 2105.979,1220.075 2105.979,1224.454 813.801,1308.423 					" />
						<polygon
							style="clip-path:url(#SVGID_00000157278644588937154570000002816558255968273571_);fill:#55B8E6;"
							points="
						813.801,1299.665 2105.979,1215.696 2105.979,1220.075 813.801,1304.044 					" />
						<polygon
							style="clip-path:url(#SVGID_00000157278644588937154570000002816558255968273571_);fill:#56B9E7;"
							points="
						813.801,1295.287 2105.979,1211.318 2105.979,1215.696 813.801,1299.665 					" />
						<polygon
							style="clip-path:url(#SVGID_00000157278644588937154570000002816558255968273571_);fill:#57B9E7;"
							points="
						813.801,1290.908 2105.979,1206.939 2105.979,1211.318 813.801,1295.287 					" />
						<polygon
							style="clip-path:url(#SVGID_00000157278644588937154570000002816558255968273571_);fill:#58BAE8;"
							points="
						813.801,1286.529 2105.979,1202.56 2105.979,1206.939 813.801,1290.908 					" />
						<polygon
							style="clip-path:url(#SVGID_00000157278644588937154570000002816558255968273571_);fill:#59BBE8;"
							points="
						813.801,1282.15 2105.979,1198.181 2105.979,1202.56 813.801,1286.529 					" />
						<polygon
							style="clip-path:url(#SVGID_00000157278644588937154570000002816558255968273571_);fill:#5ABBE8;"
							points="
						813.801,1277.771 2105.979,1193.802 2105.979,1198.181 813.801,1282.15 					" />
						<polygon
							style="clip-path:url(#SVGID_00000157278644588937154570000002816558255968273571_);fill:#5BBCE9;"
							points="
						813.801,1273.393 2105.979,1189.424 2105.979,1193.802 813.801,1277.771 					" />
						<polygon
							style="clip-path:url(#SVGID_00000157278644588937154570000002816558255968273571_);fill:#5CBDE9;"
							points="
						813.801,1269.014 2105.979,1185.045 2105.979,1189.424 813.801,1273.393 					" />
						<polygon
							style="clip-path:url(#SVGID_00000157278644588937154570000002816558255968273571_);fill:#5DBDEA;"
							points="
						813.801,1264.635 2105.979,1180.666 2105.979,1185.045 813.801,1269.014 					" />
						<polygon
							style="clip-path:url(#SVGID_00000157278644588937154570000002816558255968273571_);fill:#5EBEEA;"
							points="
						813.801,1260.256 2105.979,1176.287 2105.979,1180.666 813.801,1264.635 					" />
						<polygon
							style="clip-path:url(#SVGID_00000157278644588937154570000002816558255968273571_);fill:#5FBEEB;"
							points="
						813.801,1255.877 2105.979,1171.908 2105.979,1176.287 813.801,1260.256 					" />
						<polygon
							style="clip-path:url(#SVGID_00000157278644588937154570000002816558255968273571_);fill:#60BFEB;"
							points="
						813.801,1251.499 2105.979,1167.53 2105.979,1171.908 813.801,1255.877 					" />
						<polygon
							style="clip-path:url(#SVGID_00000157278644588937154570000002816558255968273571_);fill:#61C0EC;"
							points="
						813.801,1247.12 2105.979,1163.151 2105.979,1167.53 813.801,1251.499 					" />
						<polygon
							style="clip-path:url(#SVGID_00000157278644588937154570000002816558255968273571_);fill:#62C0EC;"
							points="
						813.801,1242.741 2105.979,1158.772 2105.979,1163.151 813.801,1247.12 					" />
						<polygon
							style="clip-path:url(#SVGID_00000157278644588937154570000002816558255968273571_);fill:#63C1EC;"
							points="
						813.801,1238.362 2105.979,1154.393 2105.979,1158.772 813.801,1242.741 					" />
						<polygon
							style="clip-path:url(#SVGID_00000157278644588937154570000002816558255968273571_);fill:#64C2ED;"
							points="
						813.801,1233.984 2105.979,1150.014 2105.979,1154.393 813.801,1238.362 					" />
						<polygon
							style="clip-path:url(#SVGID_00000157278644588937154570000002816558255968273571_);fill:#65C2ED;"
							points="
						813.801,1229.605 2105.979,1145.636 2105.979,1150.014 813.801,1233.984 					" />
						<polygon
							style="clip-path:url(#SVGID_00000157278644588937154570000002816558255968273571_);fill:#66C3EE;"
							points="
						813.801,1225.226 2105.979,1141.257 2105.979,1145.636 813.801,1229.605 					" />
						<polygon
							style="clip-path:url(#SVGID_00000157278644588937154570000002816558255968273571_);fill:#67C4EE;"
							points="
						813.801,1220.847 2105.979,1136.878 2105.979,1141.257 813.801,1225.226 					" />
						<polygon
							style="clip-path:url(#SVGID_00000157278644588937154570000002816558255968273571_);fill:#68C4EF;"
							points="
						813.801,1216.468 2105.979,1132.499 2105.979,1136.878 813.801,1220.847 					" />
						<polygon
							style="clip-path:url(#SVGID_00000157278644588937154570000002816558255968273571_);fill:#69C5EF;"
							points="
						813.801,1212.089 2105.979,1128.12 2105.979,1132.499 813.801,1216.468 					" />
						<polygon
							style="clip-path:url(#SVGID_00000157278644588937154570000002816558255968273571_);fill:#6AC6F0;"
							points="
						813.801,1207.711 2105.979,1123.742 2105.979,1128.12 813.801,1212.089 					" />
						<polygon
							style="clip-path:url(#SVGID_00000157278644588937154570000002816558255968273571_);fill:#6BC6F0;"
							points="
						813.801,1203.332 2105.979,1119.363 2105.979,1123.742 813.801,1207.711 					" />
						<polygon
							style="clip-path:url(#SVGID_00000157278644588937154570000002816558255968273571_);fill:#6CC7F0;"
							points="
						813.801,1198.953 2105.979,1114.984 2105.979,1119.363 813.801,1203.332 					" />
						<polygon
							style="clip-path:url(#SVGID_00000157278644588937154570000002816558255968273571_);fill:#6DC7F1;"
							points="
						813.801,1194.574 2105.979,1110.605 2105.979,1114.984 813.801,1198.953 					" />
						<polygon
							style="clip-path:url(#SVGID_00000157278644588937154570000002816558255968273571_);fill:#6EC8F1;"
							points="
						813.801,1190.196 2105.979,1106.226 2105.979,1110.605 813.801,1194.574 					" />
						<polygon
							style="clip-path:url(#SVGID_00000157278644588937154570000002816558255968273571_);fill:#6FC9F2;"
							points="
						813.801,1185.817 2105.979,1101.848 2105.979,1106.226 813.801,1190.196 					" />
						<polygon
							style="clip-path:url(#SVGID_00000157278644588937154570000002816558255968273571_);fill:#70C9F2;"
							points="
						813.801,1181.438 2105.979,1097.469 2105.979,1101.848 813.801,1185.817 					" />
						<polygon
							style="clip-path:url(#SVGID_00000157278644588937154570000002816558255968273571_);fill:#71CAF3;"
							points="
						813.801,1177.059 2105.979,1093.09 2105.979,1097.469 813.801,1181.438 					" />
						<polygon
							style="clip-path:url(#SVGID_00000157278644588937154570000002816558255968273571_);fill:#72CBF3;"
							points="
						813.801,1172.68 2105.979,1088.711 2105.979,1093.09 813.801,1177.059 					" />
						<polygon
							style="clip-path:url(#SVGID_00000157278644588937154570000002816558255968273571_);fill:#73CBF3;"
							points="
						813.801,1168.302 2105.979,1084.333 2105.979,1088.711 813.801,1172.68 					" />
						<polygon
							style="clip-path:url(#SVGID_00000157278644588937154570000002816558255968273571_);fill:#74CCF4;"
							points="
						813.801,1163.923 2105.979,1079.954 2105.979,1084.333 813.801,1168.302 					" />
						<polygon
							style="clip-path:url(#SVGID_00000157278644588937154570000002816558255968273571_);fill:#75CDF4;"
							points="
						813.801,1159.544 2105.979,1075.575 2105.979,1079.954 813.801,1163.923 					" />
						<polygon
							style="clip-path:url(#SVGID_00000157278644588937154570000002816558255968273571_);fill:#76CDF5;"
							points="
						813.801,1155.165 2105.979,1071.196 2105.979,1075.575 813.801,1159.544 					" />
						<polygon
							style="clip-path:url(#SVGID_00000157278644588937154570000002816558255968273571_);fill:#77CEF5;"
							points="
						813.801,1150.786 2105.979,1066.817 2105.979,1071.196 813.801,1155.165 					" />
						<polygon
							style="clip-path:url(#SVGID_00000157278644588937154570000002816558255968273571_);fill:#78CFF6;"
							points="
						813.801,1146.408 2105.979,1062.439 2105.979,1066.817 813.801,1150.786 					" />
						<polygon
							style="clip-path:url(#SVGID_00000157278644588937154570000002816558255968273571_);fill:#79CFF6;"
							points="
						813.801,1142.029 2105.979,1058.06 2105.979,1062.439 813.801,1146.408 					" />
						<polygon
							style="clip-path:url(#SVGID_00000157278644588937154570000002816558255968273571_);fill:#7AD0F7;"
							points="
						813.801,1137.65 2105.979,1053.681 2105.979,1058.06 813.801,1142.029 					" />
						<polygon
							style="clip-path:url(#SVGID_00000157278644588937154570000002816558255968273571_);fill:#7BD0F7;"
							points="
						813.801,1133.271 2105.979,1049.302 2105.979,1053.681 813.801,1137.65 					" />
						<polygon
							style="clip-path:url(#SVGID_00000157278644588937154570000002816558255968273571_);fill:#7CD1F7;"
							points="
						813.801,1128.892 2105.979,1044.923 2105.979,1049.302 813.801,1133.271 					" />
						<polygon
							style="clip-path:url(#SVGID_00000157278644588937154570000002816558255968273571_);fill:#7DD2F8;"
							points="
						813.801,1124.514 2105.979,1040.545 2105.979,1044.923 813.801,1128.892 					" />
						<polygon
							style="clip-path:url(#SVGID_00000157278644588937154570000002816558255968273571_);fill:#7ED2F8;"
							points="
						813.801,1120.135 2105.979,1036.166 2105.979,1040.545 813.801,1124.514 					" />
						<polygon
							style="clip-path:url(#SVGID_00000157278644588937154570000002816558255968273571_);fill:#7FD3F9;"
							points="
						813.801,1115.756 2105.979,1031.787 2105.979,1036.166 813.801,1120.135 					" />
						<polygon
							style="clip-path:url(#SVGID_00000157278644588937154570000002816558255968273571_);fill:#80D4F9;"
							points="
						813.801,1111.377 2105.979,1027.408 2105.979,1031.787 813.801,1115.756 					" />
						<polygon
							style="clip-path:url(#SVGID_00000157278644588937154570000002816558255968273571_);fill:#81D4FA;"
							points="
						813.801,1106.999 2105.979,1023.029 2105.979,1027.408 813.801,1111.377 					" />
						<polygon
							style="clip-path:url(#SVGID_00000157278644588937154570000002816558255968273571_);fill:#82D5FA;"
							points="
						813.801,1102.62 2105.979,1018.651 2105.979,1023.029 813.801,1106.999 					" />
						<polygon
							style="clip-path:url(#SVGID_00000157278644588937154570000002816558255968273571_);fill:#83D6FB;"
							points="
						813.801,1098.241 2105.979,1014.272 2105.979,1018.651 813.801,1102.62 					" />
						<polygon
							style="clip-path:url(#SVGID_00000157278644588937154570000002816558255968273571_);fill:#84D6FB;"
							points="
						813.801,1093.862 2105.979,1009.893 2105.979,1014.272 813.801,1098.241 					" />
						<polygon
							style="clip-path:url(#SVGID_00000157278644588937154570000002816558255968273571_);fill:#85D7FB;"
							points="
						813.801,1089.483 2105.979,1005.514 2105.979,1009.893 813.801,1093.862 					" />
						<polygon
							style="clip-path:url(#SVGID_00000157278644588937154570000002816558255968273571_);fill:#86D8FC;"
							points="
						813.801,1085.104 2105.979,1001.135 2105.979,1005.514 813.801,1089.483 					" />
						<polygon
							style="clip-path:url(#SVGID_00000157278644588937154570000002816558255968273571_);fill:#87D8FC;"
							points="
						813.801,1080.726 2105.979,996.757 2105.979,1001.135 813.801,1085.104 					" />
						<polygon
							style="clip-path:url(#SVGID_00000157278644588937154570000002816558255968273571_);fill:#88D9FD;"
							points="
						813.801,1076.347 2105.979,992.378 2105.979,996.757 813.801,1080.726 					" />
						<polygon
							style="clip-path:url(#SVGID_00000157278644588937154570000002816558255968273571_);fill:#89D9FD;"
							points="
						813.801,1071.968 2105.979,987.999 2105.979,992.378 813.801,1076.347 					" />
						<polygon
							style="clip-path:url(#SVGID_00000157278644588937154570000002816558255968273571_);fill:#8ADAFE;"
							points="
						813.801,1067.589 2105.979,983.62 2105.979,987.999 813.801,1071.968 					" />
						<polygon
							style="clip-path:url(#SVGID_00000157278644588937154570000002816558255968273571_);fill:#8BDBFE;"
							points="
						813.801,1063.211 2105.979,979.242 2105.979,983.62 813.801,1067.589 					" />
						<polygon
							style="clip-path:url(#SVGID_00000157278644588937154570000002816558255968273571_);fill:#8CDBFF;"
							points="
						813.801,1058.832 2105.979,974.863 2105.979,979.242 813.801,1063.211 					" />
						<polygon
							style="clip-path:url(#SVGID_00000157278644588937154570000002816558255968273571_);fill:#8DDCFF;"
							points="
						813.801,1054.453 2105.979,970.484 2105.979,974.863 813.801,1058.832 					" />
						<polygon
							style="clip-path:url(#SVGID_00000157278644588937154570000002816558255968273571_);fill:#8DDCFF;"
							points="
						2105.979,970.484 813.801,1054.453 813.801,936.877 2105.979,936.877 					" />
					</g>
				</g>
				<g>
					<g>
						<rect x="1311.61" y="1557.847" style="fill:#8088C2;" width="277.113" height="29.17" />
					</g>
					<g>
						<polygon style="fill:#8792CE;"
							points="1565.018,1721.728 1335.315,1721.728 1328.018,1587.017 1572.315,1587.017 					" />
					</g>
					<g style="opacity:0.28;">
						<path style="fill:#370C62;" d="M1572.315,1587.017h-244.297l7.297,134.712h30.208c2.971-20.963,8.893-43.297,20.227-61.218
						c20.482-32.387,121.575-45.118,185.29-49.975L1572.315,1587.017z" />
					</g>
					<g>
						<path style="fill:#676E9C;" d="M1772.25,1794.654H1147.53l0,0c0-40.275,32.649-72.926,72.924-72.926h478.87
						C1739.6,1721.728,1772.25,1754.379,1772.25,1794.654L1772.25,1794.654z" />
					</g>
				</g>
			</g>
			<g>
				<path style="fill:#E76A53;" d="M1935.223,551.477c0,0-132.547,10.722-132.547,49.986c0,32.329,59.66,162.891,70.696,213.125
				c2.054,9.351-10.361,23.056-9.752,24.583c2.879,7.215,18.35-3.059,18.35-3.059l11.91-36.078c0,0-45.575-169.427-31.7-183.301
				c13.874-13.874,147.722-42.536,147.722-42.536L1935.223,551.477z" />
				<path style="fill:#B32323;"
					d="M1893.071,799.475c0,0,2.843-1.845,6.798,4.083c3.957,5.928,2.248,39.317,2.248,39.317
				l-6.257,1.385c0,0-0.19-24.489-1.641-24.215c-1.45,0.274-3.905,25.7-7.268,27.336c-3.362,1.636-26.356,7.564-30.666,4.623
				c-4.31-2.941,7.334-12.833,7.334-12.833s11.995-0.649,13.236-2.468C1878.098,834.883,1893.071,799.475,1893.071,799.475z" />
				<path style="opacity:0.68;fill:#FF7F4C;" d="M1840.154,602.354c10.907-32.72,110.767-39.718,110.767-39.718l42.696,6.607
				l16.286,4.955c0,0-133.848,28.661-147.722,42.536c-8.689,8.69,5.938,78.384,18.085,129.268
				C1860.602,688.939,1833.992,620.84,1840.154,602.354z" />
				<path style="fill:#FFA283;" d="M2056.716,575.325c0,0,4.01,18.316-7.084,29.41c-11.094,11.094-134.613,5.204-140.691,21.701
				c-10.793,29.298,17.636,173.04,17.636,173.04l-12.275,35.848c0,0-16.759,11.308-18.327,7.071
				c-0.748-2.02,11.779-18.062,10.314-30.889c-5.463-47.824-68.403-184.354-59.265-211.77
				c10.907-32.72,110.767-39.718,110.767-39.718L2056.716,575.325z" />
				<path style="fill:#275ABD;" d="M2056.716,581.412c0,0,3.91,18.324-3.419,25.654c-7.329,7.329-144.356,19.37-144.356,19.37
				s4.572-22.512-22.128-32.459c-26.7-9.947-54.315-13.282-75.322-8.997c0,0,4.122-13.374,43.91-24.962
				c39.789-11.588,83.585-12.112,83.585-12.112L2056.716,581.412z" />
				<path style="fill:#160862;" d="M2012.626,229.723c-4.178,0.876-41.897,1.299-41.897,28.734c0,27.435,0.545,38.341-6.544,50.339
				c-7.089,11.997,4.718,41.106,13.56,41.205c8.842,0.099,9.576,31.87,9.576,31.87s51.03,22.904,65.208,16.906
				c3.545-1.499,7.567-1.772,11.606-1.338c25.056,2.695,42.62-25.586,26.582-45.025c-0.677-0.82-1.407-1.625-2.195-2.413
				c-21.693-21.693-19.087-19.937-19.087-44.477c0-24.54-4.363-17.45-14.725-32.174
				C2044.349,258.625,2038.25,224.347,2012.626,229.723z" />
				<path style="fill:#B32323;" d="M1966.792,423.192c0,0-23.829,64.895-51.713,74.527c-27.884,9.633-40.558,40.052-40.558,40.052
				l16.501,14.52l54.152-24.153L1966.792,423.192z" />
				<path style="fill:#151515;" d="M1981.014,350.363c-7.635,7.635-53.365,48.214-44.136,73.271
				c20.497,55.647-15.193,118.934-15.193,127.659c0,8.726,108.94,38.173,132.935,38.173c23.995,0-28.858-76.637-19.042-102.814
				c9.816-26.176,22.859-131.135,14.679-139.315C2044.803,341.884,1982.542,348.835,1981.014,350.363z" />
				<path style="fill:#FFA283;" d="M1999.087,300.793l-4.18,49.647c0,0-28.067,59.191-14.643,64.099
				c13.425,4.908,44.117-61.828,44.117-61.828v-63.547L1999.087,300.793z" />
				<path style="opacity:0.68;fill:#FF7F4C;" d="M2024.381,289.164v32.152c-8.349,12.653-20.166,21.507-28.852,21.73l3.558-42.253
				L2024.381,289.164z" />
				<path style="fill:#FFA283;" d="M1999.087,243.356c0,0-14.724-6.544-19.632,22.904c-4.908,29.448-0.776,60.758,13.767,62.939
				c14.542,2.181,41.312-21.204,41.312-45.488C2034.534,262.838,2010.728,240.25,1999.087,243.356z" />
				<path style="fill:#151515;"
					d="M1926.577,799.475c0,0,2.842-1.845,6.798,4.083c3.956,5.928,2.248,39.317,2.248,39.317
				l-6.256,1.385c0,0-0.19-24.489-1.641-24.215c-1.45,0.274-3.906,25.7-7.268,27.336c-3.362,1.636-26.356,7.564-30.666,4.623
				c-4.31-2.941,7.334-12.833,7.334-12.833s11.994-0.649,13.236-2.468C1911.604,834.883,1926.577,799.475,1926.577,799.475z" />
				<path style="opacity:0.35;fill:#1A3140;" d="M1855.401,560.018c39.789-11.588,83.585-12.112,83.585-12.112l49.808,14.175
				c-4.743,1.54-14.974,4.666-19.847,4.666c-6.464,0-39.925,8.668-50.191,8.668c-6.682,0-53.826-4.187-85.94-7.111
				C1838.64,565.575,1846.031,562.747,1855.401,560.018z" />
				<polygon style="fill:#686476;" points="1980.988,558.343 1980.988,549.939 1935.158,562.52 1915.079,562.52 1915.146,567.181 
				1934.624,566.747 			" />
				<polygon style="fill:#1A3140;"
					points="1980.988,549.939 1864.634,552.98 1784.609,566.747 1935.158,562.52 			" />
				<path style="fill:#FFA283;" d="M1960.582,537.771c0,0-17.086,5.98-25.958,3.422c-8.872-2.558-15.041-3.802-23.821,2.281
				c-8.779,6.084-11.696,12.512-11.696,12.512s-5.371,5.904,0,6.65c5.372,0.746,42.386-0.365,43.413-1.392
				c1.027-1.027,30.419-6.553,30.419-6.553L1960.582,537.771z" />
				<path style="fill:#B32323;" d="M2074.283,521.206c-22.036,31.125-89.636,44.342-116.493,38.812c0,0-0.771-8.757-12.551-20.536
				c-2.728-2.728,80.754-35.149,90.338-40.678c9.585-5.529,12.944-148.641,12.944-148.641s14.438,6.078,21.126,27.19
				C2083.099,419.815,2091.737,496.554,2074.283,521.206z" />
				<path style="fill:#003C8E;" d="M2076.075,396.484c6.01-1.774,11.389-5.666,15.123-10.676c7.786-10.446,7.839-25.15-2.676-35.664
				c-21.693-21.693-19.087-19.937-19.087-44.478c0-24.54,2.465-30.315-7.896-45.039c-10.361-14.724-23.289-36.138-48.913-30.762
				c-0.33,0.068-0.871,0.136-1.585,0.213c-0.494,0.125-27.922,0.233-22.91,15.749c0,0,6.65-3.277,11.228,3.942
				c8.53,13.45,8.726,17.723,18.541,22.086c9.816,4.362,6.02,21.267,6.02,32.446c0,8.566,1.213,17.106,0.986,25.673
				c-0.259,9.754-18.899,77.622,36.032,67.592C2065.983,396.647,2071.037,397.972,2076.075,396.484z" />
				<path style="fill:#686476;" d="M1905.633,416.049l30.857,138.208c1.447,6.484-3.427,12.659-10.069,12.757l-145.212,2.139
				c-4.709,0.07-8.886-3.013-10.208-7.534l-41.04-140.347c-1.962-6.706,3.067-13.415,10.053-13.415h155.397
				C1900.315,407.857,1904.563,411.261,1905.633,416.049z" />
				<path style="opacity:0.22;fill:#686476;" d="M1908.024,426.757l28.466,127.5c1.447,6.484-3.427,12.659-10.069,12.757
				l-95.858,1.412c-14.368-26.145-38.112-73.232-38.112-98.852C1792.45,444.642,1862.817,432.186,1908.024,426.757z" />
			</g>
			<g>
				<path style="fill:#151515;" d="M1077.246,1334.817v46.351c-8.352,0-16.704,0-24.929,0v-94.721h8.759l47.696,46.619v-46.216
				c8.224,0,16.441,0,24.657,0v94.454h-8.623L1077.246,1334.817z" />
				<path style="fill:#151515;" d="M1151.626,1334.143c0-65.214,96.739-65.214,96.739,0
				C1248.365,1399.492,1151.626,1399.492,1151.626,1334.143z M1223.708,1334.143c0-33.955-47.289-33.955-47.289,0
				C1176.419,1368.369,1223.708,1368.369,1223.708,1334.143z" />
				<path style="fill:#151515;" d="M1257.267,1308.409c0-7.275,0-14.415,0-21.558h70.064c0,7.144,0,14.283,0,21.558h-23.038v72.76
				c-7.953,0-15.898,0-23.852,0v-72.76H1257.267z" />
				<path style="fill:#151515;" d="M1403.864,1350.584v30.584c-8.081,0-16.297,0-24.522,0v-94.318c19.273,0,39.479,0,58.752,0
				c0,7.949,0,13.474,0,21.558h-34.23v20.617h30.321c0,8.085,0,13.202,0,21.558H1403.864z" />
				<path style="fill:#151515;" d="M1450.89,1334.143c0-65.214,96.739-65.214,96.739,0
				C1547.629,1399.492,1450.89,1399.492,1450.89,1334.143z M1522.971,1334.143c0-33.955-47.289-33.955-47.289,0
				C1475.683,1368.369,1522.971,1368.369,1522.971,1334.143z" />
				<path style="fill:#151515;" d="M1616.631,1349.372v-62.521c7.682,0,15.763,0,23.309,0v62.924
				c0,20.749-18.188,32.742-37.589,32.742c-19.273,0-37.461-11.994-37.461-32.742v-62.924c7.546,0,15.492,0,23.038,0v62.521
				c0,7.678,7.411,11.451,14.423,11.451C1609.356,1360.823,1616.631,1357.05,1616.631,1349.372z" />
				<path style="fill:#151515;" d="M1688.043,1334.817v46.351c-8.352,0-16.704,0-24.929,0v-94.721h8.759l47.696,46.619v-46.216
				c8.224,0,16.441,0,24.657,0v94.454h-8.623L1688.043,1334.817z" />
				<path style="fill:#151515;" d="M1803.784,1381.169h-35.57v-94.318h35.57C1865.232,1287.122,1865.232,1380.897,1803.784,1381.169z
				 M1792.337,1359.208h11.447c30.05,0,30.05-50.396,0-50.396h-11.447V1359.208z" />
			</g>
			<path style="fill:#F7CC7F;" d="M1053.203,1558.019c728.795,0,1068.719-234.266,1079.711-239.762
			c9.892,13.189-2.766,64.898-2.766,64.898c-156.707,90.745-412.113,174.692-822.087,174.692
			C1171.909,1559.476,1053.203,1558.019,1053.203,1558.019z" />
			<g>
				<path style="fill:#686476;" d="M1399.846,1539.034c-38.467,4.38-78.507,8.122-120.156,11.093
				c-1.464,2.747-3.099,5.453-4.919,8.062c10.941-0.095,22.053-0.208,33.289-0.342c30.547,0,60.215-0.476,89.069-1.376
				C1398.729,1550.129,1399.504,1544.097,1399.846,1539.034z" />
				<path style="fill:#686476;" d="M2020.615,1437.534c30.235-12.83,57.934-26.179,83.307-39.78
				c4.616-18.913,8.172-41.657,8.246-66.978c-17.363,10.187-45.585,25.827-85.011,44.244
				C2026.653,1389.38,2025.133,1413.083,2020.615,1437.534z" />
				<path style="fill:#686476;" d="M1915.297,1476.387c4.269-14.57,7.247-33.452,6.545-57.299
				c-35.828,13.442-76.319,27.209-121.588,40.607c1.417,14.408,1.141,31.6-3.691,48.921
				C1839.141,1498.906,1878.649,1488.068,1915.297,1476.387z" />
				<path style="fill:#686476;" d="M1653.965,1497.211c-37.656,8.27-77.617,16.039-119.91,23.08
				c-0.643,8.697-2.267,18.609-5.71,28.735c44.269-3.706,86.27-8.501,126.113-14.233
				C1657.103,1522.979,1657.503,1510.247,1653.965,1497.211z" />
			</g>
		</g>
		<g>
			<path style="fill:#F8A492;" d="M555.591,1277.354c0.729,2.682,1.148,3.571,2.075,5.371c5.979,11.615,19.851,28.187,19.851,28.187
			l10.731-25.802c0,0-1.75-8.102-4.783-19.683C573.101,1268.314,563.23,1269.987,555.591,1277.354z" />
			<path style="fill:#275ABD;" d="M617.114,1254.974c0,0-59.85,27.506-61.785,26.981c-1.246-0.339-24.55-41.967-24.799-81.114
			c-0.115-18.081,17.479-39.83,37.109-35.529c9.883,2.165,9.73,5.099,24.352,27.775
			C606.611,1215.762,617.114,1254.974,617.114,1254.974z" />
			<path style="fill:#F7A491;" d="M668.204,1748.137c0,0-1.42,25.086-1.428,25.138c-0.522,3.185-2.577,11.054-2.577,13.948
			c0,10.878,48.396-9.233,37.55-14.053c-0.982-0.437-6.125-3.736-6.448-7.439c-0.497-5.704-1.76-17.243-1.76-17.243
			L668.204,1748.137z" />
			<path style="fill:#184655;"
				d="M701.628,1773.067c0,0-11.362,3.327-17.182,4.159c-5.82,0.832-13.492-6.172-17.608-4.281
			c-4.531,2.083-4.353,20.827-4.353,20.827s60.933,5.336,78.066-0.183C747.34,1791.401,724.857,1780.816,701.628,1773.067z" />
			<path style="fill:#F7A491;" d="M569.202,1748.137c0,0-1.42,25.086-1.428,25.138c-0.522,3.185-2.578,11.054-2.578,13.948
			c0,10.878,48.397-9.233,37.55-14.053c-0.982-0.437-7.65-6.199-7.973-9.901c-0.497-5.705-0.235-14.78-0.235-14.78L569.202,1748.137
			z" />
			<path style="fill:#184655;"
				d="M602.626,1773.067c0,0-11.362,3.327-17.182,4.159c-5.82,0.832-13.492-6.172-17.608-4.281
			c-4.531,2.083-4.712,20.827-4.712,20.827s61.209,6.221,78.424-0.183C648.233,1791.101,625.855,1780.816,602.626,1773.067z" />
			<g>
				<path style="fill:#F7A491;" d="M583.993,1291.254l42.625-63.726c0.179-0.558,0.566-1.699,1.158-3.443
				c2.147-6.324,6.614-19.481,10.505-32.572l0.042-0.14c1.222-4.574,3.814-12.557,6.321-20.279
				c2.788-8.586,6.244-19.232,6.365-21.048c-0.107-0.31-0.308-0.868-0.576-1.608c-1.562-4.331-3.675-14.641-4.423-19.124
				c-0.476-2.855-0.951-9.795,2.229-9.795c5,0,2.617,6.931,4.923,11.259c0.848-2.894,2.56-8.631,3.465-14.441l0.836-13.548
				c0.161-1.022-0.858-8.496,2.649-8.496l0.167,0.007c3.151,0.245,3.08,8.192,4.389,21.631c0.414-1.546,0.829-3.411,1.142-5.125
				c-0.037-0.919,0.594-4.96,1.066-7.093c-0.633-3.745-0.265-9.651,3.472-9.094c1.873,0.28,1.718,8.522,1.718,8.522
				c-0.02,1.131-0.13,9.847-0.073,11.569c0.386-2.925,1.883-15.397,4.815-15.397c2.431,0,2.627,3.357,2.576,6.013
				c-0.029,1.573-1.557,15.085-1.642,16.657c1.144-2.051,2.502-13.959,3.637-13.959c4.741,0,3.027,16.932,1.285,21.344
				c-0.163,0.451-0.338,1.337-0.539,2.363c-0.592,3.017-1.584,8.065-4.065,12.598c-2.977,5.434-7.083,14.075-7.709,15.399
				c-0.459,2.699-1.885,12.406-3.679,24.617c-0.768,5.224-1.61,10.954-2.487,16.887l-0.046-0.007
				c-0.161,1.284-1.049,5.367-4.42,20.687c-4.614,20.965-5.093,21.87-5.297,22.257c-2.003,3.785-47.961,70.392-49.917,73.226
				l-1.153,1.672L583.993,1291.254z" />
				<path style="fill:#F47458;" d="M663.273,1142.626c0,0-3.459-9.443-9.619-9.46c0,0,3.442-1.325,6.392,1.168
				C662.998,1136.828,663.273,1142.626,663.273,1142.626z" />
			</g>
			<g>
				<path style="fill:#F7A491;"
					d="M573.694,1124.382l-5.487,37.035c0,0,20.908,17.916,33.095,14.138
				c10.226-3.171,3.213-17.44,3.213-17.44s-5.448-19.771-3.776-30.134C602.412,1117.618,573.694,1124.382,573.694,1124.382z" />
				<path style="fill:#FE875E;" d="M577.633,1135.579c5.241,2.64,15.601,6.245,23.663,7.117c-0.771-5.182-1.21-10.664-0.557-14.715
				c0.772-4.782-4.931-5.913-11.295-5.749c-8.327,0.762-15.751,2.15-15.751,2.15l-1.055,7.117
				C574.223,1133.282,575.888,1134.7,577.633,1135.579z" />
				<path style="fill:#F7A491;" d="M547.309,1081.663c-0.863,0.004,8.265,41.375,22.39,48.492
				c14.126,7.118,35.192,3.408,39.144-7.734c4.372-12.325-11.577-54.534-31.443-59.895
				C557.533,1057.162,547.309,1081.663,547.309,1081.663z" />
				<path style="fill:#151515;" d="M563.655,1043.65c-11.283,6.945-16.461,17.245-18.204,21.465
				c-5.296,2.682-11.704,8.483-14.779,24.113c-3.782,19.218,9.664,34.033,23.92,38.489c14.255,4.456,16.663,14.524,16.663,14.524
				l1.411-10.834c0,0-3.171-9.433-7.94-14.155c-4.769-4.721,2.259-11.602,2.877-17.214c0.476-4.321-2.505-12.712-1.86-19.803
				c0,0,7.921-12.812,15.729-15.978C594.783,1058.86,578.131,1034.738,563.655,1043.65z" />
				<path style="fill:#F7A491;" d="M569.659,1107.241c1.846,4.778,1.092,9.522-1.686,10.596c-2.777,1.073-6.525-1.93-8.371-6.708
				c-1.846-4.778-1.091-9.522,1.686-10.596C564.065,1099.459,567.813,1102.463,569.659,1107.241z" />
			</g>
			<path style="fill:#F8A492;" d="M622.275,1292.279l82.219-14.306c0,0-9.355-25.134-12.697-25.134
			c-3.343,0-62.169,27.407-62.169,27.407l-4.679,10.027L622.275,1292.279z" />
			<path style="fill:#3C8F7C;" d="M580.161,1352.443c0,0-8.202,42.318-4.859,74.405c3.342,32.087,3.605,146.071,3.605,146.071
			l-12.755,182.373l30.264,0.705c0,0,35.886-182.286,35.218-177.607c-0.669,4.679,12.033-128.348,12.033-128.348l-42.783-101.609
			L580.161,1352.443z" />
			<path style="fill:#50BFA5;"
				d="M588.182,1350.438c0,0-5.348,38.103,1.337,54.816c6.685,16.71,57.337,180.687,58.005,194.056
			c0.669,13.369,17.513,161.143,17.513,161.143l35.191-1.055l7.613-164.297l-15.941-206.493l-15.477-52.208L588.182,1350.438z" />
			<path style="fill:#F7A491;" d="M568.208,1161.417c0,0,8.677,6.077,16.771,5.373c8.094-0.704,19.537-8.675,19.537-8.675
			l-1.59-5.753c0,0-20.938-3.255-21.467-2.903C580.932,1149.811,568.208,1161.417,568.208,1161.417z" />
			<path style="fill:#F8A492;" d="M660.697,1251.599c0,0,31.1,31.322,45.138,25.974c14.038-5.348,19.847-23.627-14.405-50.373
			C660.775,1203.265,660.697,1251.599,660.697,1251.599z" />
			<path style="fill:#407FFE;"
				d="M681.77,1290.274c-4.62-26.824-38.103-110.3-40.777-125.674
			c-1.301-7.477-19.361-7.643-36.565-6.667c-18.17,1.031-36.221,3.484-36.221,3.484s-16.086,2.82-23.164,9.896
			c-7.078,7.078-8.958,26.651,1.216,63.808c8.031,29.331,17.987,45.437,22.915,66.801c0.998,7.167,1.853,14.237,2.986,22.497
			c1.812,31.945-0.021,74.148-0.021,74.148s87.571,19.386,120.326-10.027C692.465,1388.541,686.503,1317.756,681.77,1290.274z" />
			<path style="fill:#275ABD;" d="M704.099,1232.597c0,0-34.361,30.27-36.367,30.27c-1.291,0-49.034-37.483-60.055-68.277
			c-6.092-17.023,6.686-36.07,21.283-36.006c10.117,0.044,14.616,2.826,34.67,20.875
			C683.684,1197.507,704.099,1232.597,704.099,1232.597z" />
		</g>
	</g>
</svg>
